<?xml version="1.0" standalone="no"?>
<!DOCTYPE svg PUBLIC "-//W3C//DTD SVG 1.1//EN" "http://www.w3.org/Graphics/SVG/1.1/DTD/svg11.dtd"><svg t="1643266945477"
  class="icon" viewBox="0 0 1024 1024" version="1.1" xmlns="http://www.w3.org/2000/svg" p-id="12238"
  xmlns:xlink="http://www.w3.org/1999/xlink" width="200" height="200">
  <defs>
    <style type="text/css"></style>
    <linearGradient id="steam" x1="0%" y1="0%" x2="0%" y2="100%">
      <stop offset="0%" style="stop-color:#121b2f;
stop-opacity:1" />
      <stop offset="75%" style="stop-color:#0e4070;
stop-opacity:1" />
      <stop offset="100%" style="stop-color:#0374a6;
stop-opacity:1" />
    </linearGradient>
  </defs>
  <path
    d="M511.104 0C242.261333 0 21.802667 207.36 0.938667 470.912l274.432 113.408a144.512 144.512 0 0 1 81.578666-25.173333c2.688 0 5.333333 0.170667 8.021334 0.256l122.069333-176.725334V380.16a193.194667 193.194667 0 0 1 193.024-193.024c106.410667 0 193.024 86.656 193.024 193.152s-86.613333 193.066667-193.024 193.066667h-4.48l-173.909333 124.202666c0 2.218667 0.170667 4.48 0.170666 6.784a144.725333 144.725333 0 0 1-144.64 144.896 145.578667 145.578667 0 0 1-142.122666-116.352L18.602667 651.52C79.445333 866.432 276.736 1024 511.104 1024c282.752 0 511.957333-229.248 511.957333-512S793.813333 0 511.104 0zM321.706667 776.96l-62.848-26.026667c11.178667 23.168 30.464 42.624 56.064 53.333334a108.842667 108.842667 0 0 0 142.378666-141.824 108.672 108.672 0 0 0-138.88-60.288l64.981334 26.88a80.128 80.128 0 0 1-61.653334 147.925333H321.706667z m487.04-396.928a128.810667 128.810667 0 0 0-128.64-128.64 128.64 128.64 0 1 0 128.64 128.64z m-224.981334-0.213333a96.597333 96.597333 0 1 1 193.322667 0 96.725333 96.725333 0 0 1-96.682667 96.64 96.597333 96.597333 0 0 1-96.64-96.64z"
    fill="url(#steam)" p-id="12239"></path>
</svg>